# xmcd
#
# Track frame offsets:
#	150
#	1432
#	17754
#	26459
#	34213
#	39245
#	43820
#	44569
#	52588
#	57369
#	67686
#	79664
#	223971
#	228438
#	233523
#	288095
#
# Disc length: 3853 seconds
# Revision: 0
# Processed by: cddbd v1.5.2PL0 Copyright (c) Steve Scherf et al.
# Submitted via: dBpowerAMP V12.0
#
DISCID=c70f0b10
DTITLE=Hale Dwoskin - The Inner Circle Retreat 01 CD 05
DYEAR=2006
DGENRE=Speech
TTITLE0=Intro Music
TTITLE1=Partnership Release Demonstration pt 1
TTITLE2=Partnership Release Demonstration pt 2
TTITLE3=Stay with the Process
TTITLE4=Continue Working on Your Own
TTITLE5=Assignments
TTITLE6=You Do Not Need to Feel the Releasing
TTITLE7=Give Yourself Permission to Hold On
TTITLE8=It Is All about Me and My Stories
TTITLE9=Losing Your Mind
TTITLE10=The Dot in the Middle
TTITLE11=Release on Defending the Story
TTITLE12=Assignments
TTITLE13=Share Your Gains
TTITLE14=Falling Asleep - Nightmares - Goals
TTITLE15=Concluding Music
EXTD=
EXTT0=
EXTT1=
EXTT2=
EXTT3=
EXTT4=
EXTT5=
EXTT6=
EXTT7=
EXTT8=
EXTT9=
EXTT10=
EXTT11=
EXTT12=
EXTT13=
EXTT14=
EXTT15=
PLAYORDER=
